<svg width="26" height="26" viewBox="0 0 26 26" fill="none" xmlns="http://www.w3.org/2000/svg">
<path fill-rule="evenodd" clip-rule="evenodd" d="M5.41671 10.8333C6.61332 10.8333 7.58337 11.8033 7.58337 12.9999C7.58337 14.1965 6.61332 15.1666 5.41671 15.1666C4.22009 15.1666 3.25004 14.1965 3.25004 12.9999C3.25004 11.8033 4.22009 10.8333 5.41671 10.8333Z" fill="black"/>
<path fill-rule="evenodd" clip-rule="evenodd" d="M13 10.8333C14.1966 10.8333 15.1666 11.8033 15.1666 12.9999C15.1666 14.1965 14.1966 15.1666 13 15.1666C11.8033 15.1666 10.8333 14.1965 10.8333 12.9999C10.8333 11.8033 11.8033 10.8333 13 10.8333Z" fill="black"/>
<path fill-rule="evenodd" clip-rule="evenodd" d="M20.5833 10.8333C21.78 10.8333 22.75 11.8033 22.75 12.9999C22.75 14.1965 21.78 15.1666 20.5833 15.1666C19.3867 15.1666 18.4167 14.1965 18.4167 12.9999C18.4167 11.8033 19.3867 10.8333 20.5833 10.8333Z" fill="black"/>
</svg>
