<svg width="16" height="16" viewBox="0 0 16 16" fill="none" xmlns="http://www.w3.org/2000/svg">
<path fill-rule="evenodd" clip-rule="evenodd" d="M13.818 2.08398C13.6246 1.91799 13.377 1.82879 13.1222 1.83329L13.1134 1.83345L11.8334 1.83337V8.1667H13.1222C13.377 8.17121 13.6246 8.08208 13.818 7.91609C14.0036 7.75671 14.1269 7.5372 14.1667 7.2964V2.70367C14.1269 2.46288 14.0036 2.24336 13.818 2.08398ZM10.8334 8.5606L8.35619 14.1342C8.07417 14.0745 7.81297 13.9343 7.60603 13.7274C7.32472 13.4461 7.16669 13.0645 7.16669 12.6667V10C7.16669 9.7239 6.94283 9.50004 6.66669 9.50004H2.89335L2.88769 9.50007C2.7669 9.50144 2.64725 9.47653 2.53704 9.42706C2.42683 9.3776 2.32869 9.30476 2.24942 9.2136C2.17015 9.12245 2.11165 9.01514 2.07797 8.89913C2.04432 8.78323 2.03625 8.6614 2.05431 8.54207C2.05429 8.54219 2.05432 8.54196 2.05431 8.54207L2.97437 2.54167C3.0045 2.34296 3.10544 2.16184 3.25857 2.03167C3.41171 1.9015 3.60673 1.83107 3.8077 1.83334L10.8334 1.83337V8.5606ZM13.1092 0.833371C13.6074 0.825715 14.0912 1.00062 14.4693 1.32518C14.8486 1.65078 15.0952 2.10431 15.1622 2.59968C15.1652 2.6219 15.1667 2.64429 15.1667 2.6667V7.33337C15.1667 7.35579 15.1652 7.37818 15.1622 7.40039C15.0952 7.89577 14.8486 8.3493 14.4693 8.67489C14.0912 8.99945 13.6074 9.17436 13.1092 9.1667H11.6583L9.12359 14.8698C9.04334 15.0503 8.86428 15.1667 8.66669 15.1667C8.00365 15.1667 7.36776 14.9033 6.89892 14.4345C6.43008 13.9656 6.16669 13.3297 6.16669 12.6667V10.5H2.89599C2.63127 10.5026 2.36912 10.4478 2.12757 10.3394C1.88511 10.2306 1.6692 10.0703 1.49481 9.86978C1.32042 9.66923 1.19172 9.43317 1.11762 9.17794C1.04352 8.92271 1.0258 8.65443 1.06568 8.39167L1.98567 2.39174C1.98565 2.39188 1.98569 2.39159 1.98567 2.39174C2.05205 1.95474 2.27414 1.556 2.61093 1.26973C2.94705 0.984023 3.3749 0.829118 3.81596 0.833371H13.1092Z" fill="#818181"/>
</svg>
