<svg width="16" height="16" viewBox="0 0 16 16" fill="none" xmlns="http://www.w3.org/2000/svg">
<path fill-rule="evenodd" clip-rule="evenodd" d="M13.818 2.08395C13.6246 1.91796 13.377 1.82876 13.1222 1.83326L13.1134 1.83342L11.8334 1.83334V8.16667H13.1222C13.377 8.17118 13.6246 8.08205 13.818 7.91606C14.0036 7.75668 14.1269 7.53717 14.1667 7.29637V2.70364C14.1269 2.46285 14.0036 2.24333 13.818 2.08395ZM10.8334 8.56057L8.35619 14.1342C8.07417 14.0745 7.81297 13.9343 7.60603 13.7273C7.32472 13.446 7.16669 13.0645 7.16669 12.6667V10C7.16669 9.72386 6.94283 9.50001 6.66669 9.50001H2.89335L2.88769 9.50004C2.7669 9.50141 2.64725 9.47649 2.53704 9.42703C2.42683 9.37757 2.32869 9.30473 2.24942 9.21357C2.17015 9.12242 2.11165 9.01511 2.07797 8.8991C2.04432 8.7832 2.03625 8.66137 2.05431 8.54204C2.05429 8.54216 2.05432 8.54193 2.05431 8.54204L2.97437 2.54164C3.0045 2.34293 3.10544 2.16181 3.25857 2.03164C3.41171 1.90147 3.60673 1.83104 3.8077 1.83331L10.8334 1.83334V8.56057ZM13.1092 0.83334C13.6074 0.825685 14.0912 1.00059 14.4693 1.32515C14.8486 1.65075 15.0952 2.10428 15.1622 2.59965C15.1652 2.62187 15.1667 2.64426 15.1667 2.66667V7.33334C15.1667 7.35576 15.1652 7.37815 15.1622 7.40036C15.0952 7.89574 14.8486 8.34927 14.4693 8.67486C14.0912 8.99942 13.6074 9.17433 13.1092 9.16667H11.6583L9.12359 14.8697C9.04334 15.0503 8.86428 15.1667 8.66669 15.1667C8.00365 15.1667 7.36776 14.9033 6.89892 14.4344C6.43008 13.9656 6.16669 13.3297 6.16669 12.6667V10.5H2.89599C2.63127 10.5026 2.36912 10.4478 2.12757 10.3394C1.88511 10.2305 1.6692 10.0703 1.49481 9.86975C1.32042 9.6692 1.19172 9.43314 1.11762 9.17791C1.04352 8.92268 1.0258 8.6544 1.06568 8.39164L1.98567 2.39171C1.98565 2.39185 1.98569 2.39156 1.98567 2.39171C2.05205 1.95471 2.27414 1.55597 2.61093 1.2697C2.94705 0.983993 3.3749 0.829087 3.81596 0.83334H13.1092Z" fill="#818181"/>
</svg>
