<svg width="16" height="16" viewBox="0 0 16 16" fill="none" xmlns="http://www.w3.org/2000/svg">
<path fill-rule="evenodd" clip-rule="evenodd" d="M6.87641 1.13027C6.95666 0.94971 7.13572 0.833344 7.33331 0.833344C7.99635 0.833344 8.63224 1.09674 9.10108 1.56558C9.56992 2.03442 9.83331 2.6703 9.83331 3.33334V5.50001H13.104C13.3688 5.49745 13.6309 5.55226 13.8724 5.66066C14.1149 5.76948 14.3308 5.92972 14.5052 6.13026C14.6796 6.33081 14.8083 6.56688 14.8824 6.82211C14.9565 7.07733 14.9742 7.34562 14.9343 7.60838L14.0143 13.6083C14.0143 13.6083 14.0143 13.6083 14.0143 13.6083C13.948 14.0454 13.7259 14.444 13.3891 14.7303C13.0529 15.016 12.6251 15.1709 12.184 15.1667H2.66665C2.18042 15.1667 1.7141 14.9735 1.37028 14.6297C1.02647 14.2859 0.833313 13.8196 0.833313 13.3333V8.66668C0.833313 8.18045 1.02647 7.71413 1.37028 7.37032C1.7141 7.0265 2.18042 6.83334 2.66665 6.83334H4.34171L6.87641 1.13027ZM5.16665 7.43945L7.64381 1.86583C7.92583 1.9255 8.18703 2.06573 8.39397 2.27268C8.67528 2.55399 8.83331 2.93552 8.83331 3.33334V6.00001C8.83331 6.27615 9.05717 6.50001 9.33331 6.50001H13.1066L13.1123 6.49998C13.2331 6.49861 13.3528 6.52352 13.463 6.57299C13.5732 6.62245 13.6713 6.69528 13.7506 6.78644C13.8299 6.8776 13.8884 6.9849 13.922 7.10092C13.9557 7.21685 13.9638 7.33872 13.9457 7.45808C13.9457 7.45816 13.9457 7.458 13.9457 7.45808L13.0256 13.4584C12.9955 13.6571 12.8946 13.8382 12.7414 13.9684C12.5883 14.0985 12.3933 14.169 12.1923 14.1667L5.16665 14.1667V7.43945ZM4.16665 14.1667V7.83334H2.66665C2.44563 7.83334 2.23367 7.92114 2.07739 8.07742C1.92111 8.2337 1.83331 8.44566 1.83331 8.66668V13.3333C1.83331 13.5544 1.92111 13.7663 2.07739 13.9226C2.23367 14.0789 2.44563 14.1667 2.66665 14.1667H4.16665Z" fill="#818181"/>
</svg>
