<svg width="16" height="16" viewBox="0 0 16 16" fill="none" xmlns="http://www.w3.org/2000/svg">
<path fill-rule="evenodd" clip-rule="evenodd" d="M6.87659 1.1303C6.95684 0.949741 7.1359 0.833374 7.3335 0.833374C7.99654 0.833374 8.63242 1.09677 9.10126 1.56561C9.5701 2.03445 9.8335 2.67033 9.8335 3.33337V5.50004H13.1042C13.3689 5.49749 13.6311 5.55229 13.8726 5.66069C14.1151 5.76951 14.331 5.92975 14.5054 6.13029C14.6798 6.33084 14.8085 6.56691 14.8826 6.82214C14.9567 7.07736 14.9744 7.34565 14.9345 7.60841L14.0145 13.6083C14.0145 13.6084 14.0145 13.6083 14.0145 13.6083C13.9482 14.0455 13.7261 14.444 13.3893 14.7303C13.0531 15.0161 12.6253 15.171 12.1842 15.1667H2.66683C2.1806 15.1667 1.71428 14.9736 1.37047 14.6297C1.02665 14.2859 0.833496 13.8196 0.833496 13.3334V8.66671C0.833496 8.18048 1.02665 7.71416 1.37047 7.37035C1.71428 7.02653 2.1806 6.83337 2.66683 6.83337H4.34189L6.87659 1.1303ZM5.16683 7.43948L7.644 1.86586C7.92601 1.92553 8.18721 2.06577 8.39416 2.27271C8.67546 2.55402 8.8335 2.93555 8.8335 3.33337V6.00004C8.8335 6.27618 9.05735 6.50004 9.3335 6.50004H13.1068L13.1125 6.50001C13.2333 6.49864 13.3529 6.52355 13.4631 6.57302C13.5734 6.62248 13.6715 6.69531 13.7508 6.78647C13.83 6.87763 13.8885 6.98493 13.9222 7.10095C13.9559 7.21688 13.9639 7.33875 13.9459 7.45811C13.9458 7.45819 13.9459 7.45803 13.9459 7.45811L13.0258 13.4584C12.9957 13.6571 12.8947 13.8382 12.7416 13.9684C12.5885 14.0986 12.3935 14.169 12.1925 14.1667L5.16683 14.1667V7.43948ZM4.16683 14.1667V7.83337H2.66683C2.44582 7.83337 2.23385 7.92117 2.07757 8.07745C1.92129 8.23373 1.8335 8.44569 1.8335 8.66671V13.3334C1.8335 13.5544 1.92129 13.7663 2.07757 13.9226C2.23385 14.0789 2.44582 14.1667 2.66683 14.1667H4.16683Z" fill="#818181"/>
</svg>
