<svg xmlns="http://www.w3.org/2000/svg" width="14" height="14" viewBox="0 0 14 14" fill="none">
<g clip-path="url(#clip0_19848_236)">
<path fill-rule="evenodd" clip-rule="evenodd" d="M1.19885 2.3656C1.49969 2.06476 1.90772 1.89575 2.33317 1.89575H6.4165C6.65813 1.89575 6.854 2.09163 6.854 2.33325C6.854 2.57488 6.65813 2.77075 6.4165 2.77075H2.33317C2.13978 2.77075 1.95432 2.84757 1.81757 2.98432C1.68083 3.12107 1.604 3.30653 1.604 3.49992V11.6666C1.604 11.86 1.68083 12.0454 1.81757 12.1822C1.95432 12.3189 2.13978 12.3958 2.33317 12.3958H10.4998C10.6932 12.3958 10.8787 12.3189 11.0154 12.1822C11.1522 12.0454 11.229 11.86 11.229 11.6666V7.58325C11.229 7.34163 11.4249 7.14575 11.6665 7.14575C11.9081 7.14575 12.104 7.34163 12.104 7.58325V11.6666C12.104 12.092 11.935 12.5001 11.6342 12.8009C11.3333 13.1017 10.9253 13.2708 10.4998 13.2708H2.33317C1.90772 13.2708 1.49969 13.1017 1.19885 12.8009C0.898014 12.5001 0.729004 12.092 0.729004 11.6666V3.49992C0.729004 3.07447 0.898014 2.66644 1.19885 2.3656Z" fill="currentColor"/>
<path fill-rule="evenodd" clip-rule="evenodd" d="M11.6665 1.53345C11.4544 1.53345 11.2509 1.61773 11.1009 1.76774L5.64489 7.22372L5.2678 8.7321L6.77618 8.355L12.2322 2.89902C12.3822 2.74901 12.4665 2.54554 12.4665 2.33338C12.4665 2.12123 12.3822 1.91776 12.2322 1.76774C12.0821 1.61773 11.8787 1.53345 11.6665 1.53345ZM10.4822 1.14902C10.7963 0.834913 11.2223 0.658447 11.6665 0.658447C12.1107 0.658447 12.5368 0.834913 12.8509 1.14902C13.165 1.46314 13.3415 1.88916 13.3415 2.33338C13.3415 2.77761 13.165 3.20363 12.8509 3.51774L7.30921 9.05941C7.25314 9.11548 7.18288 9.15526 7.10596 9.17449L4.77262 9.75782C4.62353 9.79509 4.46582 9.75141 4.35715 9.64274C4.24849 9.53408 4.2048 9.37636 4.24208 9.22728L4.82541 6.89394C4.84464 6.81702 4.88442 6.74676 4.94049 6.69069L10.4822 1.14902Z" fill="currentColor"/>
</g>
<defs>
<clipPath id="clip0_19848_236">
<rect width="14" height="14" fill="currentColor"/>
</clipPath>
</defs>
</svg>